<svg xmlns="http://www.w3.org/2000/svg" width="32" height="32" viewBox="0 0 32 32">
  <rect width="32" height="32" fill="#56a4ed"/>
  <g id="surface1">
    <path fill="#fcfcfc" stroke="#fcfcfc" stroke-width="0.55" stroke-linejoin="round" d="M10.71 15.78Q10.47 16.48 10.29 16.99Q10.11 17.51 9.97 17.89Q9.83 18.28 9.73 18.55Q9.63 18.83 9.54 19.06Q9.43 19.32 9.29 19.46Q9.16 19.60 9 19.67Q8.84 19.73 8.66 19.74Q8.47 19.75 8.27 19.75Q8.15 19.75 7.98 19.75Q7.80 19.75 7.66 19.74L7.56 19.67Q8.38 17.89 9.12 16.27Q9.85 14.65 10.54 13.17Q10.39 12.94 10.39 12.79Q10.39 12.52 10.83 12.51Q12.08 9.77 13.06 7.67Q14.04 5.58 14.78 4.17Q14.85 4.04 14.96 3.95Q15.07 3.87 15.20 3.82Q15.33 3.77 15.47 3.75Q15.62 3.73 15.75 3.73Q15.95 3.73 16.14 3.76Q16.33 3.80 16.55 3.89Q16.98 6.27 17.34 8.16Q17.70 10.06 18.01 11.54Q18.32 13.03 18.59 14.13Q18.86 15.23 19.12 16.02Q19.37 16.81 19.62 17.33Q19.87 17.84 20.14 18.13Q20.41 18.43 20.71 18.54Q21.02 18.66 21.37 18.66Q21.60 18.66 21.84 18.60Q22.08 18.55 22.37 18.45L22.56 19.01Q21.77 19.40 21.06 19.60Q20.34 19.81 19.79 19.81Q19.47 19.81 19.19 19.69Q18.92 19.58 18.66 19.29Q18.40 19.01 18.16 18.53Q17.92 18.05 17.67 17.33Q17.43 16.60 17.17 15.60Q16.91 14.60 16.62 13.27Q15.36 13.29 14.12 13.33Q12.89 13.38 11.57 13.45Q11.30 14.15 11.09 14.74Q10.87 15.33 10.71 15.78M16.44 12.43Q16.30 11.75 16.13 10.93Q15.97 10.11 15.80 9.19Q15.63 8.27 15.45 7.27Q15.27 6.27 15.10 5.25L15.06 5.25Q14.08 7.28 13.30 9.12Q12.53 10.96 11.93 12.51Q13.11 12.48 14.21 12.46Q15.31 12.45 16.44 12.43"/>
  </g>

  <!-- Eye icon overlay -->
  <g transform="translate(10, 12) scale(0.3)">
    <path fill="#ffffff" d="M 1.5,35 c 4.5,5.5 17.5,20 33,20 c 15.5,0 28.5,-14.5 33,-20 c 1,-1.2 1,-3 0,-4.2 c -4.5,-5.5 -17.5,-20 -33,-20 c -15.5,-0.1 -28.5,14.5 -33,20.2 C -0.5,32 -0.5,33.8 1.5,35 z" opacity="0.9"/>
    <path fill="#1cccfc" d="M 33.5,18 c 7.5,0 13.5,6 13.5,13.5 S 41,45 33.5,45 S 20,39 20,31.5 S 26,18 33.5,18 z" opacity="0.9"/>
    <circle fill="#000000" cx="33.5" cy="31.5" r="6" opacity="0.85"/>
  </g>
</svg>
